# xmcd
#
# Track frame offsets:
#	150
#	18547
#	37687
#	50412
#	61887
#	74635
#	88425
#	99350
#	118850
#	136420
#	151102
#	168617
#	190217
#	209785
#
# Disc length: 3136 seconds
#
# Revision: 5
# Processed by: cddbd v1.4PL0 Copyright (c) Steve Scherf et al.
# Submitted via: MusicWizard 6.0.0
#
DISCID=cb0c3e0e
DTITLE=Bob Dylan - On The Road Again
DYEAR=1900
DGENRE=
TTITLE0=All I Really Want To Do
TTITLE1=It's All Over Now, Baby Blue
TTITLE2=She Belongs To Me
TTITLE3=On The Road Again
TTITLE4=Love Minus Zero
TTITLE5=Outlaw Blues
TTITLE6=Spanish Harlem
TTITLE7=My Back Pages
TTITLE8=Maggie's Farm
TTITLE9=Black Crow Blues
TTITLE10=To Ramona
TTITLE11=I Shell Be Free No. 10
TTITLE12=I Don't Believe You
TTITLE13=Gates Of Eden
EXTD=
EXTT0=
EXTT1=
EXTT2=
EXTT3=
EXTT4=
EXTT5=
EXTT6=
EXTT7=
EXTT8=
EXTT9=
EXTT10=
EXTT11=
EXTT12=
EXTT13=
PLAYORDER=
